<?xml version="1.0" encoding="UTF-8"?>
<svg version="1.1" viewBox="0 0 400 300" xmlns="http://www.w3.org/2000/svg"><rect width="400" height="300" fill="#040404"/><path d="m236.19-1.6e-4v171.71h5.7598v-171.71zm0 185.92v42.762c0.0125-5e-5 0.0246-2e-3 0.0371-2e-3 2.1825 0 4.1817 0.81271 5.7226 2.1426v-44.902z" fill="#fff100"/><path d="m75.896-1.6e-4v103.29h5.7598v-23.717c0.75715 0.99085 1.5735 1.9329 2.4531 2.8125 5.0721 5.0721 12.104 8.2148 19.832 8.2148h14.301l-5.7598-5.7598h-8.541c-6.1712 0-11.722-2.4911-15.758-6.5274-4.0363-4.0363-6.5274-9.5866-6.5274-15.758v-62.551zm48.805 84.836 5.7598 5.7598h77.754c0.45884 0 0.91363 0.0178 1.3652 0.0449v-5.7695c-0.45232-0.0218-0.90778-0.0352-1.3652-0.0352zm93.518 1.8476v6.2812c2.1356 1.0757 4.077 2.4813 5.7539 4.1582 4.0363 4.0363 6.5293 9.5885 6.5293 15.76v58.822h5.7598v-58.822c0-7.7277-3.1427-14.76-8.2148-19.832-2.7618-2.7618-6.1082-4.9454-9.8281-6.3672zm12.283 99.232v44.9c1.5404-1.3292 3.5388-2.1406 5.7207-2.1406 0.0132 0 0.0259 2e-3 0.0391 2e-3v-42.762z" fill="#00b7c3"/><path d="m4.9805e-7 52.564v5.7598h78.754c5.5561 0.042 11.392 2.3383 15.828 6.5742l107.42 107.42 0.0254 0.0215c2.2317 2.1312 4.81 3.7661 7.5508 4.8652v-6.4023c-1.2657-0.7153-2.4708-1.5789-3.5566-2.6133l-107.44-107.44-0.0234-0.0234c-5.4976-5.2501-12.671-8.1144-19.764-8.168h-0.01zm218.22 120.52v5.7598h36.436c15.482 0 27.971 12.489 27.971 27.971v93.182h5.7598v-93.182c0-18.595-15.136-33.73-33.73-33.73h-18.432z" fill="#00cc6a"/><path d="m78.775 106.08c-7.7277 0-14.76 3.1427-19.832 8.2148-5.0721 5.0721-8.2129 12.104-8.2129 19.832v68.371h5.7598v-68.371c0-6.1712 2.4911-11.722 6.5273-15.758 4.0362-4.0363 9.5866-6.5273 15.758-6.5273h45.479c2.9559 0 5.8488 0.58582 8.5273 1.6953 2.6786 1.1095 5.1404 2.7419 7.2305 4.832l57.973 57.973 0.0254 0.0215c3.3635 3.2121 7.3551 5.5248 11.57 6.8535v-6.1211c-2.7377-1.1067-5.3349-2.7465-7.5762-4.8828l-57.918-57.918c-2.6294-2.6294-5.7291-4.682-9.0996-6.0781-3.3705-1.3961-7.0138-2.1367-10.732-2.1367zm139.44 72.691v5.7617h36.436c6.1712 0 11.722 2.4911 15.758 6.5274s6.5273 9.5866 6.5273 15.758v93.182h5.7598v-93.182c0-7.7277-3.1427-14.76-8.2148-19.832-5.0721-5.0721-12.102-8.2148-19.83-8.2148h-18.432zm-167.49 32.367v1.1562c0 6.1712-2.493 11.724-6.5293 15.76-4.0362 4.0363-9.5866 6.5273-15.758 6.5273h-28.443v5.7598h28.443c7.7277 0 14.76-3.1427 19.832-8.2148 5.0721-5.0721 8.2148-12.104 8.2148-19.832v-1.1562z" fill="#fa4"/><path d="m211.02-1.6e-4v214.96c-0.7573-0.99102-1.5754-1.9328-2.4551-2.8125-5.0721-5.0721-12.104-8.2129-19.832-8.2129h-188.73v5.7598h188.73c6.1712 0 11.724 2.4911 15.76 6.5273 4.0363 4.0362 6.5274 9.5866 6.5274 15.758v68.016h5.7598v-300z" fill="#5a686c"/><path d="m316.33 113.85c-7.7277 0-14.758 3.1408-19.83 8.2129-5.0721 5.0721-8.2148 12.104-8.2148 19.832v158.11h5.7598v-158.11c0-6.1712 2.4911-11.722 6.5273-15.758 4.0363-4.0363 9.5866-6.5273 15.758-6.5273h83.672v-5.7598z" fill="#3a96dd"/><path d="m78.775 46.658c-4.8324 0-8.7852 3.9527-8.7852 8.7852 0 4.8324 3.9528 8.7871 8.7852 8.7871 4.8324 0 8.7871-3.9547 8.7871-8.7871 0-4.8324-3.9547-8.7852-8.7871-8.7852zm0 53.518c-4.8324 0-8.7852 3.9528-8.7852 8.7852 0 4.8324 3.9527 8.7852 8.7852 8.7852s8.7871-3.9528 8.7871-8.7852-3.9547-8.7852-8.7871-8.7852zm92.854 32.932c-4.8324 0-8.7852 3.9527-8.7852 8.7852 0 4.8324 3.9528 8.7871 8.7852 8.7871 4.8324 0 8.7871-3.9547 8.7871-8.7871 0-4.8324-3.9547-8.7852-8.7871-8.7852zm113.88 95.568c-4.8324 0-8.7852 3.9547-8.7852 8.7871s3.9528 8.7852 8.7852 8.7852c4.8324 0 8.7871-3.9528 8.7871-8.7852s-3.9547-8.7871-8.7871-8.7871z" fill="#040404"/><path d="m78.775 50.017c-3.0165 0-5.4258 2.4092-5.4258 5.4258 0 3.0165 2.4093 5.4277 5.4258 5.4277 3.0165 0 5.4258-2.4112 5.4258-5.4277 0-3.0165-2.4092-5.4258-5.4258-5.4258zm0 53.518c-3.0165 0-5.4258 2.4092-5.4258 5.4258 0 3.0165 2.4092 5.4258 5.4258 5.4258s5.4258-2.4092 5.4258-5.4258-2.4092-5.4258-5.4258-5.4258zm92.854 32.932c-3.0165 0-5.4258 2.4092-5.4258 5.4258 0 3.0165 2.4093 5.4258 5.4258 5.4258 3.0166 0 5.4258-2.4093 5.4258-5.4258 0-3.0165-2.4092-5.4258-5.4258-5.4258zm64.594 95.568c-3.0165 0-5.4258 2.4112-5.4258 5.4277 0 3.0165 2.4093 5.4258 5.4258 5.4258 3.0166 0 5.4258-2.4092 5.4258-5.4258s-2.4092-5.4277-5.4258-5.4277zm49.281 0c-3.0165 0-5.4258 2.4112-5.4258 5.4277 1e-5 3.0165 2.4093 5.4258 5.4258 5.4258 3.0166 0 5.4258-2.4092 5.4258-5.4258s-2.4092-5.4277-5.4258-5.4277zm-39.822 3.7461v3.3613h3.3594v-3.3613zm6.7188 0v3.3613h3.3613v-3.3613zm6.7207 0v3.3613h3.3594v-3.3613zm6.7207 0v3.3613h3.3594v-3.3613zm6.7188 0v3.3613h3.3613v-3.3613z" fill="#fff"/></svg>
