<?xml version="1.0" encoding="UTF-8"?>
<svg width="368" height="102.5" version="1.1" viewBox="0 0 736 204.9" xmlns="http://www.w3.org/2000/svg"><g transform="translate(0 -64)"><g><path d="m701.8 123c0.9221-5.071 3.873-8.483 8.207-8.483 4.518 0 7.653 3.504 7.561 8.483zm-18.44 4.795c0 15.4 10.24 25.54 27.02 25.54 9.497 0 17.06-3.227 22.31-9.036l-9.682-9.497c-3.32 3.043-7.1 4.795-11.07 4.795-4.795 0-8.299-2.674-9.774-7.469h33.75c1.106-18.44-8.483-30.24-26.1-30.24-15.86 0-26.46 10.24-26.46 25.91zm-55.45 24.9h18.63v-24.8c0-5.717 3.135-9.682 8.207-9.774 4.334 0 7.192 3.135 7.192 8.114v26.46h18.63v-31.81c0-11.62-7.377-19.09-18.07-19.09-7.008 0-12.45 2.951-15.95 8.483v-7.745h-18.63zm-26.72 0h18.63v-50.16h-18.63zm-0.1844-64.45c0 5.625 3.965 9.59 9.59 9.59 5.625 0 9.59-3.965 9.59-9.59 0-5.625-3.965-9.59-9.59-9.59-5.625 0-9.59 3.965-9.59 9.59zm-27.16 64.45h18.63v-68.42h-18.63zm-60.22 13.19c4.979 3.781 9.958 5.532 16.14 5.532 10.05 0 16.87-4.61 20.84-14.48l21.02-54.4h-18.53l-9.313 30.71-10.97-30.71h-19.09l20.75 48.78-0.9221 1.752c-1.107 2.213-2.951 3.227-5.44 3.227s-4.426-0.8299-6.731-2.858zm-31.64-29.51c0-3.135 1.936-4.703 5.625-4.703h8.483v4.518c-1.383 3.135-4.703 5.164-8.483 5.164-3.596 0-5.625-1.844-5.625-4.979zm-17.52 1.383c0 9.405 6.27 15.77 16.97 15.77 6.639 0 11.62-2.305 14.66-6.362v5.532h18.26v-32.55c0-11.62-8.391-18.35-22.5-18.35-7.838 0-15.95 1.844-24.16 5.164l4.61 12.36c5.532-2.397 11.16-3.596 15.12-3.596 5.717 0 8.668 2.49 8.668 6.639v0.1844h-12.26c-12.63 0.1844-19.36 5.532-19.36 15.21zm-86.39-35.22 18.26 50.16h18.35l8.483-28.77 8.299 28.77h18.35l18.26-50.16h-18.07l-8.852 32-8.944-32h-17.52l-8.668 32-9.036-32z" fill="#b0a6ef" style="paint-order:stroke fill markers"/><path d="m664.9 184.3c-12.84 0-21.74 6.372-21.74 17.05 0 17.43 26.05 14.61 26.05 20.42 0 1.593-1.686 2.341-4.215 2.341-5.621 0-12.09-2.155-18.46-6.277l-5.808 11.9c6.652 4.778 14.99 7.213 23.98 7.213 13.3 0 22.39-6.37 22.39-16.86 0-17.43-26.61-14.9-26.61-20.61 0-1.593 1.5-2.437 3.842-2.437 4.029 0 9.742 1.781 16.68 5.341l6.279-11.9c-6.933-4.029-14.71-6.185-22.39-6.185zm46.79 0c-12.84 0-21.73 6.372-21.73 17.05 0 17.43 26.04 14.61 26.04 20.42 0 1.593-1.686 2.341-4.215 2.341-5.621 0-12.08-2.155-18.46-6.277l-5.81 11.9c6.652 4.778 14.99 7.213 23.98 7.213 13.3 0 22.39-6.37 22.39-16.86 0-17.43-26.61-14.9-26.61-20.61 0-1.593 1.498-2.437 3.84-2.437 4.029 0 9.744 1.781 16.68 5.341l6.277-11.9c-6.933-4.029-14.71-6.185-22.39-6.185zm-123.5 0.0938c-6.933 0-12.46 3.186-16.02 8.808v-8.057h-18.92v50.97h18.92v-24.36c0-7.401 6.277-11.52 16.02-10.3zm-180 0.0938c-16.11 0-26.89 10.4-26.89 26.33 0 15.65 10.4 25.95 27.45 25.95 9.65 0 17.33-3.281 22.67-9.183l-9.837-9.65c-3.373 3.092-7.214 4.872-11.24 4.872-4.872 0-8.43-2.716-9.929-7.588h34.29c1.124-18.74-8.618-30.73-26.51-30.73zm117.3 0c-5.715 0-10.59 2.342-13.96 6.558v-5.902h-18.92v69.14h18.92v-24.08c3.466 4.216 8.432 6.558 14.43 6.558 14.05 0 23.14-10.21 23.14-25.86 0-15.93-9.368-26.42-23.61-26.42zm88.86 0c-16.11 0-26.89 10.4-26.89 26.33 0 15.65 10.4 25.95 27.45 25.95 9.65 0 17.33-3.281 22.67-9.183l-9.837-9.65c-3.373 3.092-7.214 4.872-11.24 4.872-4.872 0-8.432-2.716-9.931-7.588h34.29c1.124-18.74-8.618-30.73-26.51-30.73zm-182.9 0.6567 16.02 24.92-17.05 26.05h20.8l8.993-14.43 7.87 14.43h21.74l-17.05-26.14 15.93-24.83h-20.61l-7.87 13.21-7.025-13.21zm-23.08 12.18c4.591 0 7.776 3.561 7.682 8.62h-16.02c0.9369-5.153 3.935-8.62 8.339-8.62zm206.2 0c4.591 0 7.778 3.561 7.684 8.62h-16.02c0.9369-5.153 3.933-8.62 8.337-8.62zm-93.82 1.78c5.621 0 9.275 4.591 9.275 11.34 0 6.745-3.653 11.34-9.275 11.34-5.434 0-9.181-4.591-9.181-11.34 0-6.745 3.747-11.34 9.181-11.34z" fill="#886ce4" style="paint-order:stroke fill markers"/><path d="m224.3 106.7c-2.457-2e-3 -4.937 0.0833-6.616 0.2554-12.28 1.258-22.67 5.544-31.95 13.18-8.945 7.357-16.07 19.07-18.94 31.13-2.857 12-2.174 25.7 1.854 37.24 2.612 7.485 8.12 16.11 13.63 21.34 10.39 9.865 23.96 15.43 39.75 16.29 15.61 0.8523 31.93-2.98 43.45-10.15v-28.66c-11.61 13.96-33.4 18.37-48.99 13.11-10.41-3.513-17.84-11.97-19.82-22.55l-0.3502-1.878h84.79l-0.114-7.207c-0.151-9.556-0.8007-14.25-3.009-21.74-2.857-9.688-7.919-18.35-14.64-25.05-8.394-8.368-19.79-13.63-32.56-15.04-1.581-0.1744-4.014-0.2628-6.47-0.2645zm0.374 23.8c3.709-8e-3 6.406 0.43 9.831 1.54 6.477 2.099 11.56 6.527 14.74 12.83 0.9671 1.92 2.403 6.494 2.597 8.273 0.0849 0.7798 0.2051 1.663 0.2672 1.963l0.1131 0.5454h-56.4l0.3238-1.701c1.153-6.052 3.637-11.15 7.344-15.06 5.431-5.736 10.92-8.086 19.53-8.363 0.5762-0.0185 1.127-0.029 1.656-0.0301z" fill="#9c89e9"/></g><path d="m223.1 64c-39.33 0.01724-73.38 22.2-90.54 54.67h19.78a85.39 85.39 0 0 1 70.73-37.59 85.39 85.39 0 0 1 85.39 85.39 85.39 85.39 0 0 1-85.39 85.39 85.39 85.39 0 0 1-65.5-30.72h-21.13c18.17 28.79 50.18 47.8 86.63 47.8 56.52 0 102.5-45.95 102.5-102.5 0-56.51-45.94-102.5-102.4-102.5zm-223.1 61.28c0.993 3.803 14.18 26.15 23.24 26.15h115.9c1.622-9.158 4.729-17.99 9.198-26.15zm34.07 33.28c0.8425 3.249 13.61 23.95 22.67 23.95h82.55c-1.032-5.283-1.562-10.65-1.583-16.03 9e-3 -2.645 0.1415-5.288 0.3961-7.92zm34.6 31.16c0.8319 3.196 14.1 25.8 23.14 25.8h61.52c-5.541-7.837-9.721-16.55-12.36-25.78z" fill="#9c89e9"/></g></svg>
