<?xml version="1.0" encoding="UTF-8"?>
<svg width="689.5" height="192" version="1.1" viewBox="0 0 1379 384" xmlns="http://www.w3.org/2000/svg"><g transform="translate(0 -64)"><g><path d="m1315 174.6c1.728-9.502 7.256-15.89 15.38-15.89 8.466 0 14.34 6.565 14.17 15.89zm-34.55 8.984c0 28.85 19.18 47.86 50.62 47.86 17.79 0 31.96-6.047 41.81-16.93l-18.14-17.79c-6.22 5.701-13.3 8.984-20.73 8.984-8.984 0-15.55-5.01-18.31-13.99h63.23c2.073-34.55-15.89-56.67-48.89-56.67-29.72 0-49.58 19.18-49.58 48.55zm-103.9 46.65h34.9v-46.47c0-10.71 5.874-18.14 15.38-18.31 8.12 0 13.48 5.874 13.48 15.2v49.58h34.9v-59.6c0-21.77-13.82-35.76-33.86-35.76-13.13 0-23.32 5.529-29.89 15.89v-14.51h-34.9zm-50.07 0h34.9v-93.99h-34.9zm-0.3456-120.8c0 10.54 7.429 17.97 17.97 17.97s17.97-7.429 17.97-17.97c0-10.54-7.429-17.97-17.97-17.97s-17.97 7.429-17.97 17.97zm-50.88 120.8h34.9v-128.2h-34.9zm-112.8 24.71c9.329 7.083 18.66 10.37 30.23 10.37 18.83 0 31.62-8.638 39.04-27.12l39.39-101.9h-34.73l-17.45 57.53-20.56-57.53h-35.76l38.87 91.39-1.728 3.283c-2.073 4.146-5.529 6.047-10.19 6.047-4.665 0-8.293-1.555-12.61-5.356zm-59.28-55.29c0-5.874 3.628-8.811 10.54-8.811h15.89v8.465c-2.592 5.874-8.811 9.675-15.89 9.675-6.738 0-10.54-3.455-10.54-9.329zm-32.83 2.592c0 17.62 11.75 29.54 31.79 29.54 12.44 0 21.77-4.319 27.47-11.92v10.37h34.21v-60.99c0-21.77-15.72-34.38-42.15-34.38-14.69 0-29.89 3.455-45.26 9.675l8.638 23.15c10.37-4.492 20.9-6.738 28.33-6.738 10.71 0 16.24 4.665 16.24 12.44v0.3455h-22.98c-23.67 0.3456-36.28 10.37-36.28 28.51zm-161.9-66 34.21 93.99h34.38l15.89-53.9 15.55 53.9h34.38l34.21-93.99h-33.86l-16.59 59.95-16.76-59.95h-32.83l-16.24 59.95-16.93-59.95z" fill="#b0a6ef" style="paint-order:stroke fill markers"/><path d="m1246 289.3c-24.05 0-40.73 11.94-40.73 31.95 0 32.65 48.8 27.38 48.8 38.27 0 2.984-3.158 4.386-7.898 4.386-10.53 0-22.65-4.037-34.58-11.76l-10.88 22.3c12.46 8.952 28.09 13.51 44.94 13.51 24.93 0 41.95-11.93 41.95-31.6 0-32.65-49.86-27.91-49.86-38.62 0-2.984 2.81-4.566 7.199-4.566 7.548 0 18.25 3.337 31.24 10.01l11.76-22.29c-12.99-7.548-27.56-11.59-41.95-11.59zm87.67 0c-24.05 0-40.72 11.94-40.72 31.95 0 32.65 48.8 27.38 48.8 38.27 0 2.984-3.158 4.386-7.898 4.386-10.53 0-22.64-4.037-34.58-11.76l-10.89 22.3c12.46 8.952 28.09 13.51 44.94 13.51 24.93 0 41.95-11.93 41.95-31.6 0-32.65-49.85-27.91-49.85-38.62 0-2.984 2.806-4.566 7.195-4.566 7.548 0 18.26 3.337 31.25 10.01l11.76-22.29c-12.99-7.548-27.56-11.59-41.95-11.59zm-231.5 0.1758c-12.99 0-23.35 5.97-30.02 16.5v-15.1h-35.46v95.49h35.46v-45.64c0-13.87 11.76-21.59 30.02-19.31zm-337.2 0.1758c-30.19 0-50.38 19.49-50.38 49.33 0 29.31 19.48 48.62 51.43 48.62 18.08 0 32.48-6.147 42.48-17.21l-18.43-18.08c-6.319 5.793-13.52 9.128-21.06 9.128-9.128 0-15.8-5.09-18.6-14.22h64.24c2.106-35.11-16.15-57.58-49.68-57.58zm219.9 0c-10.71 0-19.83 4.389-26.15 12.29v-11.06h-35.46v129.5h35.46v-45.11c6.495 7.899 15.8 12.29 27.03 12.29 26.33 0 43.36-19.13 43.36-48.45 0-29.84-17.55-49.5-44.23-49.5zm166.5 0c-30.19 0-50.38 19.49-50.38 49.33 0 29.31 19.49 48.62 51.43 48.62 18.08 0 32.48-6.147 42.48-17.21l-18.43-18.08c-6.319 5.793-13.52 9.128-21.06 9.128-9.128 0-15.8-5.09-18.61-14.22h64.25c2.106-35.11-16.15-57.58-49.68-57.58zm-342.7 1.23 30.02 46.69-31.95 48.8h38.97l16.85-27.03 14.74 27.03h40.73l-31.95-48.98 29.84-46.52h-38.62l-14.74 24.75-13.16-24.75zm-43.24 22.82c8.601 0 14.57 6.672 14.39 16.15h-30.02c1.755-9.655 7.373-16.15 15.62-16.15zm386.3 0c8.601 0 14.57 6.672 14.4 16.15h-30.02c1.755-9.655 7.37-16.15 15.62-16.15zm-175.8 3.336c10.53 0 17.38 8.602 17.38 21.24 0 12.64-6.845 21.24-17.38 21.24-10.18 0-17.2-8.602-17.2-21.24 0-12.64 7.021-21.24 17.2-21.24z" fill="#886ce4" style="paint-order:stroke fill markers"/><path d="m420.3 144c-4.603-3e-3 -9.251 0.156-12.4 0.4785-23.01 2.358-42.47 10.39-59.87 24.7-16.76 13.78-30.11 35.73-35.49 58.32-5.352 22.49-4.074 48.15 3.474 69.78 4.895 14.02 15.21 30.18 25.54 39.99 19.46 18.48 44.88 28.9 74.48 30.52 29.25 1.597 59.82-5.584 81.4-19.02v-53.69c-21.75 26.15-62.57 34.43-91.79 24.57-19.51-6.582-33.43-22.43-37.14-42.26l-0.6562-3.519h158.9l-0.2136-13.5c-0.2828-17.9-1.5-26.71-5.638-40.74-5.352-18.15-14.84-34.38-27.42-46.93-15.73-15.68-37.08-25.54-61.01-28.18-2.963-0.3269-7.521-0.4923-12.12-0.4956zm0.7007 44.59c6.949-0.0142 12 0.8058 18.42 2.885 12.14 3.932 21.66 12.23 27.62 24.05 1.812 3.598 4.503 12.17 4.865 15.5 0.1591 1.461 0.3843 3.116 0.5007 3.678l0.2119 1.022h-105.7l0.6067-3.187c2.161-11.34 6.815-20.88 13.76-28.22 10.18-10.75 20.46-15.15 36.59-15.67 1.08-0.0347 2.111-0.0543 3.104-0.0564z" fill="#9c89e9"/></g><path d="m418.1 64c-73.7 0.0323-137.5 41.59-169.6 102.4h37.05a160 160 0 0 1 132.5-70.43 160 160 0 0 1 160 160 160 160 0 0 1-160 160 160 160 0 0 1-122.7-57.57h-39.59c34.05 53.94 94.02 89.57 162.3 89.57 105.9 0 192-86.1 192-192 0-105.9-86.07-192-191.9-192zm-418.1 114.8c1.861 7.126 26.57 48.99 43.54 48.99h217.1c3.039-17.16 8.86-33.71 17.23-48.99zm63.83 62.35c1.579 6.087 25.51 44.88 42.48 44.88h154.7c-1.934-9.898-2.927-19.96-2.967-30.04 0.0174-4.955 0.2651-9.907 0.7422-14.84zm64.82 58.39c1.559 5.988 26.43 48.35 43.35 48.35h115.3c-10.38-14.68-18.21-31.01-23.17-48.3z" fill="#9c89e9"/></g></svg>
